<?xml version="1.0" encoding="UTF-8"?>
<svg width="146px" height="84px" viewBox="0 0 146 84" version="1.1" xmlns="http://www.w3.org/2000/svg" xmlns:xlink="http://www.w3.org/1999/xlink">
    <!-- Generator: Sketch 63.1 (92452) - https://sketch.com -->
    <title>cloud_left</title>
    <desc>Created with Sketch.</desc>
    <g id="Page-1" stroke="none" stroke-width="1" fill="none" fill-rule="evenodd" opacity="0.887834821">
        <g id="Weather" transform="translate(-86.000000, -333.000000)" fill="#FFFFFF">
            <g id="Group-2" transform="translate(82.000000, 323.000000)">
                <path d="M87.3867188,9.38671875 C104.734932,9.38671875 119.764532,18.6446376 127.104782,32.1518125 C128.770201,31.6548918 130.545244,31.3867188 132.386719,31.3867188 C142.051702,31.3867188 149.886719,38.7740204 149.886719,47.8867188 C149.886719,56.9994171 142.051702,64.3867188 132.386719,64.3867188 C131.423111,64.3867188 130.477693,64.3132869 129.556418,64.1720346 C123.61747,80.5763407 106.981029,92.3867188 87.3867188,92.3867188 C80.6850609,92.3867188 74.3294089,91.0051632 68.6293736,88.5307902 C65.5897195,90.9373545 61.6677358,92.3867188 57.3867188,92.3867188 C49.809864,92.3867188 43.3576628,87.8466591 40.9233275,81.4944254 C37.8351964,82.713385 34.4444046,83.3867188 30.8867188,83.3867188 C16.5273153,83.3867188 4.88671875,72.4176951 4.88671875,58.8867188 C4.88671875,45.3557424 16.5273153,34.3867188 30.8867188,34.3867188 C36.0783269,34.3867188 40.9145416,35.8205531 44.9737164,38.2909011 C50.6919238,21.5292386 67.5187951,9.38671875 87.3867188,9.38671875 Z" id="cloud_left" transform="translate(77.386719, 50.886719) rotate(7.000000) translate(-77.386719, -50.886719) "></path>
            </g>
        </g>
    </g>
</svg>