<?xml version="1.0" encoding="UTF-8"?>
<svg width="208px" height="114px" viewBox="0 0 208 114" version="1.1" xmlns="http://www.w3.org/2000/svg" xmlns:xlink="http://www.w3.org/1999/xlink">
    <!-- Generator: Sketch 63.1 (92452) - https://sketch.com -->
    <title>cloud_right</title>
    <desc>Created with Sketch.</desc>
    <g id="Page-1" stroke="none" stroke-width="1" fill="none" fill-rule="evenodd" opacity="0.887834821">
        <g id="Weather" transform="translate(-713.000000, -260.000000)" fill="#FFFFFF">
            <g id="Group" transform="translate(711.000000, 255.000000)">
                <path d="M110.228171,6 C129.301952,6 146.489155,12.903069 158.555749,23.9453543 C161.256048,21.5017108 164.847899,20.0118538 168.790027,20.0118538 C176.757731,20.0118538 183.294511,26.0981012 183.946549,33.8460566 C198.683357,35.8169799 209.9375,46.3930767 209.9375,59.1443165 C209.9375,73.2976578 196.072318,84.7712078 178.96875,84.7712078 C176.352084,84.7712078 173.811215,84.5026604 171.384196,83.9970547 C161.489178,104.539191 137.834711,119 110.228171,119 C86.4239252,119 65.5580731,108.248291 53.9169442,92.1172677 C49.4386353,93.8232531 44.4843054,94.7712078 39.2733327,94.7712078 C19.2401242,94.7712078 3,80.7607924 3,63.4780692 C3,46.1953461 19.2401242,32.1849307 39.2733327,32.1849307 C44.0668575,32.1849307 48.6432115,32.9870888 52.8318731,34.4442953 C64.2287346,17.4491893 85.6639468,6 110.228171,6 Z" id="cloud_right" transform="translate(106.468750, 62.500000) rotate(-177.000000) translate(-106.468750, -62.500000) "></path>
            </g>
        </g>
    </g>
</svg>